<svg width="20" height="24" viewBox="0 0 20 24" fill="none" xmlns="http://www.w3.org/2000/svg">
<path d="M19.3794 18.174C19.0316 18.9775 18.6199 19.7172 18.1429 20.3972C17.4926 21.3243 16.9602 21.966 16.55 22.3224C15.9139 22.9073 15.2325 23.2068 14.5027 23.2239C13.9789 23.2239 13.3471 23.0748 12.6117 22.7724C11.8739 22.4714 11.1958 22.3224 10.5758 22.3224C9.92559 22.3224 9.22822 22.4714 8.48231 22.7724C7.73526 23.0748 7.13344 23.2324 6.67331 23.248C5.97354 23.2778 5.27604 22.9697 4.57981 22.3224C4.13544 21.9348 3.57962 21.2704 2.91378 20.3291C2.19938 19.3239 1.61205 18.1584 1.15192 16.8295C0.659139 15.3942 0.412109 14.0043 0.412109 12.6587C0.412109 11.1173 0.745173 9.78789 1.41229 8.67385C1.93659 7.779 2.6341 7.07312 3.50708 6.55493C4.38006 6.03674 5.32331 5.77267 6.33911 5.75578C6.89493 5.75578 7.62381 5.9277 8.52958 6.26559C9.4328 6.60462 10.0128 6.77655 10.267 6.77655C10.4571 6.77655 11.1014 6.57552 12.1936 6.17473C13.2264 5.80305 14.0981 5.64916 14.8122 5.70978C16.7473 5.86595 18.2011 6.62876 19.1679 8.00303C17.4373 9.05163 16.5812 10.5203 16.5982 12.4044C16.6138 13.872 17.1462 15.0932 18.1926 16.0629C18.6667 16.5129 19.1963 16.8607 19.7855 17.1078C19.6577 17.4783 19.5228 17.8332 19.3794 18.174ZM14.9414 0.710131C14.9414 1.86039 14.5212 2.93439 13.6836 3.92847C12.6727 5.11023 11.4501 5.79311 10.1242 5.68536C10.1073 5.54736 10.0975 5.40213 10.0975 5.24951C10.0975 4.14526 10.5782 2.96349 11.4319 1.99724C11.8581 1.50801 12.4001 1.10122 13.0575 0.776714C13.7134 0.457053 14.3338 0.280273 14.9173 0.25C14.9343 0.403772 14.9414 0.557554 14.9414 0.710116V0.710131Z" fill="black"/>
</svg>
