<svg width="82" height="100" viewBox="0 0 82 100" fill="none" xmlns="http://www.w3.org/2000/svg">
<path fillRule="evenodd" clipRule="evenodd" d="M0.773862 68.6394C-0.243478 67.0347 -0.258847 64.9908 0.734242 63.3706L38.1259 2.37723C40.2057 -1.0152 45.2275 -0.718578 46.8935 2.89506L81.0526 76.9942C82.3198 79.7436 80.861 82.9784 77.961 83.8485L24.824 99.7896C22.686 100.431 20.3825 99.5715 19.1874 97.6862L0.773862 68.6394ZM42.4401 20.2112C42.8004 18.4169 45.2589 18.1582 45.985 19.8381L69.5475 74.3604C69.9908 75.387 69.4389 76.5708 68.3673 76.8905L31.6538 87.85C30.3043 88.2528 29.0116 87.0737 29.2889 85.6928L42.4401 20.2112Z" fill="white"/>
</svg>
