<svg width="97" height="101" viewBox="0 0 97 101" fill="none" xmlns="http://www.w3.org/2000/svg">
<path d="M96.5928 60.7933C96.0114 59.0276 94.4885 57.7978 92.519 57.5027C91.5903 57.3637 90.5267 57.423 89.2682 57.6831C87.0744 58.137 85.447 58.3098 84.2592 58.3432C88.7425 50.753 92.3879 42.0974 94.4866 33.9496C97.8802 20.7748 96.0667 14.7729 93.9476 12.0581C88.3395 4.87235 80.1573 1.01209 70.2864 0.893973C65.0206 0.829408 60.398 1.87195 57.9865 2.62167C55.7412 2.2244 53.3271 2.0026 50.794 1.96158C46.0456 1.88562 41.8502 2.92361 38.2654 5.05693C36.2807 4.38393 33.0954 3.43519 29.417 2.8298C20.7656 1.40556 13.7928 2.51533 8.6926 6.12834C2.51671 10.5028 -0.346256 18.1033 0.183236 28.7187C0.3514 32.089 2.23151 42.3435 5.19182 52.0686C6.89316 57.6584 8.70737 62.3003 10.5841 65.8666C13.2456 70.9236 16.0934 73.9016 19.2904 74.9711C21.0823 75.5697 24.338 75.989 27.7623 73.1291C28.1963 73.6562 28.7754 74.18 29.5439 74.6665C30.5199 75.2837 31.7134 75.7881 32.9053 76.087C37.2007 77.1637 41.2242 76.8944 44.6568 75.3851C44.678 75.9973 44.6943 76.5822 44.7079 77.0873C44.7306 77.9066 44.7534 78.7098 44.7833 79.4611C44.9867 84.5405 45.3313 88.49 46.3524 91.2534C46.4085 91.4053 46.4839 91.637 46.5634 91.8827C47.0728 93.4467 47.9246 96.065 50.0918 98.1156C52.3359 100.24 55.0504 100.891 57.5365 100.891C58.7834 100.891 59.973 100.727 61.0165 100.503C64.7358 99.7035 68.96 98.4859 72.0157 94.1227C74.9048 89.9982 76.3092 83.7858 76.5634 73.9973C76.5963 73.7204 76.6266 73.4561 76.6558 73.2043L76.7164 72.687L77.397 72.747L77.5724 72.7588C81.3606 72.932 85.9927 72.1264 88.8375 70.8013C91.0854 69.7554 98.2888 65.9418 96.5928 60.7933Z" fill="black"/>
<path d="M90.1155 61.7945C78.8515 64.1246 78.077 60.3004 78.077 60.3004C89.9697 42.6045 94.9416 20.1421 90.6515 14.6445C78.9466 -0.351756 58.6854 6.74058 58.3471 6.9244L58.2384 6.94415C56.0129 6.4808 53.5226 6.20507 50.7233 6.15911C45.6268 6.07556 41.7605 7.49904 38.8267 9.72997C38.8267 9.72997 2.68262 -5.20139 4.36389 28.5087C4.72143 35.68 14.6144 82.7715 26.414 68.5477C30.7268 63.3464 34.8942 58.9487 34.8942 58.9487C36.9637 60.3274 39.4414 61.0307 42.0389 60.7782L42.2408 60.6065C42.1779 61.2522 42.2067 61.8838 42.3215 62.6316C39.2816 66.0372 40.1751 66.635 34.0984 67.8895C27.9494 69.1603 31.5616 71.4224 33.92 72.0141C36.7792 72.7308 43.3937 73.7464 47.8629 67.4725L47.6849 68.1884C48.8757 69.1451 49.712 74.4106 49.5719 79.1843C49.4317 83.9576 49.3382 87.2349 50.2763 89.7947C51.2153 92.3545 52.1504 98.1142 60.139 96.3979C66.8137 94.9634 70.2728 91.2463 70.7542 85.0457C71.0955 80.6378 71.8685 81.2895 71.917 77.3484L72.537 75.4828C73.2517 69.5074 72.6506 67.5796 76.7627 68.4763L77.7626 68.5644C80.7888 68.7023 84.7505 68.076 87.0757 66.9924C92.082 64.6627 95.0514 60.7725 90.1148 61.7945H90.1155Z" fill="#336791"/>
<path d="M40.9424 31.7157C39.9274 31.574 39.0082 31.7051 38.543 32.0583C38.2817 32.2569 38.2007 32.4871 38.1787 32.6454C38.1204 33.0651 38.4135 33.5292 38.5938 33.7685C39.1036 34.446 39.8482 34.9117 40.5853 35.0142C40.6921 35.0294 40.7985 35.0362 40.9042 35.0362C42.1332 35.0362 43.2509 34.0765 43.3494 33.3682C43.4725 32.481 42.1881 31.8896 40.9424 31.7161V31.7157ZM74.5694 31.7438C74.4724 31.0484 73.2384 30.8501 72.0673 31.0134C70.8978 31.1768 69.7638 31.7062 69.8585 32.4031C69.9342 32.9451 70.9103 33.8703 72.0654 33.8703C72.1632 33.8703 72.2616 33.8638 72.3609 33.8498C73.132 33.7427 73.6979 33.2516 73.9668 32.9686C74.3758 32.5372 74.6129 32.0564 74.5694 31.7438Z" fill="white"/>
<path d="M93.8638 61.5298C93.4343 60.2275 92.0518 59.8086 89.7551 60.2841C82.9357 61.6954 80.4935 60.7178 79.6917 60.1257C84.9923 52.0284 89.3528 42.2403 91.7053 33.108C92.8195 28.7822 93.435 24.7647 93.4854 21.49C93.5411 17.896 92.9305 15.2549 91.6716 13.6415C86.5955 7.13747 79.1455 3.64865 70.1275 3.55294C63.9277 3.48305 58.6896 5.07403 57.6742 5.52143C55.5357 4.98819 53.2045 4.66081 50.6665 4.61903C46.0124 4.54345 41.9893 5.66082 38.6586 7.93846C37.2118 7.39839 33.4728 6.11126 28.9001 5.37255C20.9948 4.09643 14.7129 5.06339 10.23 8.248C4.88089 12.0483 2.41144 18.8413 2.8898 28.4381C3.05077 31.6667 4.88544 41.5992 7.7806 51.1112C11.5916 63.6309 15.7344 70.7183 20.093 72.1763C20.6032 72.3469 21.1914 72.4661 21.8402 72.4661C23.4302 72.4661 25.3796 71.7476 27.4078 69.3024C29.8817 66.3265 32.4407 63.4229 35.0817 60.5952C36.7952 61.5173 38.6776 62.0323 40.6027 62.084C40.6065 62.1345 40.6115 62.185 40.616 62.2351C40.2846 62.6314 39.9601 63.0334 39.6426 63.441C38.3086 65.1391 38.031 65.4927 33.7371 66.3791C32.5157 66.632 29.2717 67.3024 29.2239 69.5827C29.1724 72.0742 33.0588 73.1205 33.5015 73.2314C35.0446 73.6188 36.5312 73.8099 37.9488 73.8099C41.3966 73.8099 44.4308 72.6735 46.8555 70.4748C46.7809 79.3568 47.1502 88.1089 48.2137 90.7754C49.0849 92.9585 51.2127 98.2935 57.934 98.2931C58.9202 98.2931 60.0057 98.1781 61.1999 97.9213C68.2148 96.4135 71.2611 93.3045 72.4394 86.4503C73.07 82.7871 74.1521 74.04 74.6611 69.348C75.7353 69.6841 77.1181 69.8379 78.613 69.8375C81.7309 69.8375 85.3286 69.1733 87.5848 68.1231C90.1194 66.9427 94.6932 64.0464 93.8638 61.5298ZM77.1586 29.8243C77.1355 31.2094 76.9454 32.4669 76.7439 33.7795C76.5268 35.1912 76.3026 36.6508 76.2462 38.4226C76.1905 40.1468 76.4053 41.9395 76.6128 43.6733C77.0325 47.175 77.4631 50.78 75.7962 54.3372C75.5193 53.8453 75.2727 53.3368 75.0577 52.8146C74.8505 52.311 74.4005 51.502 73.7775 50.3824C71.3539 46.0238 65.6783 35.8171 68.5837 31.6523C69.4491 30.4126 71.6455 29.138 77.1586 29.8243ZM70.4759 6.35774C78.5562 6.53663 84.948 9.5678 89.4733 15.3666C92.9442 19.8144 89.1222 40.0527 78.0578 57.5123C77.9465 57.3705 77.8346 57.2291 77.7222 57.0881L77.582 56.9126C80.4412 52.1777 79.8822 47.4929 79.3845 43.3394C79.18 41.6349 78.9868 40.0249 79.0361 38.5126C79.0868 36.9098 79.2982 35.535 79.5027 34.2057C79.7538 32.5676 80.0095 30.8726 79.939 28.8744C79.9917 28.6648 80.0129 28.4172 79.9852 28.1232C79.8053 26.2071 77.6237 20.4726 73.1772 15.2822C70.7448 12.4432 67.1978 9.26624 62.3548 7.12342C64.4379 6.69045 67.2865 6.28672 70.4759 6.35774ZM25.2615 67.5128C23.0268 70.2071 21.4838 69.6906 20.9763 69.5212C17.6698 68.4152 13.833 61.4072 10.4504 50.2943C7.52343 40.6786 5.813 31.0093 5.6774 28.2979C5.25017 19.7228 7.32307 13.7467 11.8389 10.5351C19.1882 5.30912 31.2711 8.43714 36.1263 10.0236C36.0566 10.0927 35.9839 10.1572 35.9149 10.2275C27.9476 18.2959 28.1365 32.0811 28.1562 32.9238C28.1555 33.249 28.1828 33.7093 28.2199 34.3424C28.357 36.6611 28.6123 40.9763 27.9305 45.8632C27.2972 50.4044 28.6933 54.8492 31.7601 58.0581C32.0748 58.3868 32.4056 58.6996 32.7512 58.9955C31.3862 60.4615 28.4195 63.7034 25.2615 67.5128ZM33.7754 56.1215C31.3037 53.5351 30.181 49.9377 30.695 46.2506C31.4146 41.0884 31.1491 36.5923 31.0063 34.1768C30.9863 33.8388 30.9685 33.5425 30.9582 33.309C32.1221 32.274 37.5159 29.3762 41.3625 30.2599C43.1176 30.6629 44.1872 31.8616 44.6319 33.9231C46.9332 44.5966 44.9364 49.0451 43.332 52.6202C43.0014 53.3566 42.6889 54.0528 42.4223 54.7729L42.2155 55.3296C41.692 56.7372 41.205 58.046 40.9031 59.2887C38.2753 59.2811 35.7191 58.1553 33.7754 56.1211V56.1215ZM34.1788 70.5159C33.4114 70.3237 32.7213 69.9898 32.3164 69.713C32.6547 69.5535 33.2565 69.3362 34.3003 69.1205C39.3517 68.0779 40.132 67.3419 41.8356 65.1729C42.2261 64.6753 42.6688 64.1117 43.282 63.425L43.2828 63.4243C44.1959 62.3988 44.6137 62.5728 45.3712 62.888C45.9852 63.1425 46.5832 63.9142 46.8256 64.7634C46.9404 65.1645 47.0691 65.9256 46.6476 66.5181C43.0889 71.5147 37.903 71.4505 34.1788 70.5159ZM60.6152 95.1845C54.4355 96.5123 52.2474 93.3505 50.8055 89.7359C49.8749 87.4024 49.4174 76.8798 49.742 65.2591C49.7462 65.1045 49.7242 64.9552 49.6818 64.8147C49.6438 64.5372 49.5861 64.2628 49.5091 63.9936C49.0265 62.3027 47.8505 60.8884 46.4397 60.302C45.8791 60.0691 44.8504 59.6419 43.6142 59.959C43.8778 58.8697 44.3349 57.6396 44.8307 56.3076L45.0387 55.7474C45.2727 55.1158 45.5666 54.4614 45.8772 53.7687C47.5562 50.0284 49.8556 44.9053 47.36 33.3317C46.4253 28.9967 43.3036 26.8797 38.5715 27.3716C35.7347 27.6659 33.1391 28.8137 31.8445 29.4719C31.5661 29.6131 31.3116 29.7499 31.0738 29.8828C31.4351 25.5151 32.8001 17.3525 37.9064 12.188C41.1216 8.93695 45.4034 7.33117 50.6203 7.41776C60.8996 7.58639 67.4914 12.8762 71.2115 17.2845C74.4172 21.0829 76.153 24.9094 76.8457 26.9732C71.636 26.4418 68.0928 27.473 66.2968 30.048C62.3892 35.6493 68.4345 46.5206 71.3399 51.7455C71.8727 52.703 72.3326 53.5305 72.4772 53.8822C73.4234 56.1815 74.6482 57.7167 75.5425 58.8371C75.8167 59.1804 76.0826 59.5135 76.2848 59.8044C74.7069 60.2606 71.8728 61.3145 72.1311 66.5827C71.9227 69.2261 70.4415 81.6022 69.6889 85.9748C68.6954 91.7515 66.5756 93.9031 60.6152 95.1849V95.1845ZM86.4096 65.5846C84.7961 66.3354 82.096 66.8987 79.5311 67.0198C76.698 67.1528 75.2558 66.7016 74.9164 66.4239C74.7573 63.1409 75.9758 62.798 77.2654 62.4349C77.468 62.3779 77.6657 62.3221 77.8566 62.2553C77.9752 62.3521 78.1051 62.4482 78.2475 62.5424C80.5246 64.0494 84.5859 64.212 90.3198 63.0251L90.3827 63.0126C89.6093 63.7376 88.2859 64.7107 86.4096 65.5846Z" fill="white"/>
</svg>
