<svg width="63" height="26" viewBox="0 0 63 26" fill="none" xmlns="http://www.w3.org/2000/svg">
<path fillRule="evenodd" clipRule="evenodd" d="M33.9248 3.5248L29.5648 4.4582V0.921115L33.9248 0V3.5248Z" fill="#6461FC"/>
<path fillRule="evenodd" clipRule="evenodd" d="M43.0131 5.48984C41.3059 5.48984 40.2129 6.28814 39.5988 6.84081L39.3777 5.76004H35.5459V26L39.8936 25.0789L39.9059 20.1663C40.5322 20.6207 41.4533 21.2593 42.9885 21.2593C46.108 21.2593 48.9328 18.7539 48.9328 13.2641C48.9205 8.22863 46.0466 5.48984 43.0131 5.48984ZM41.9692 17.4398C40.9375 17.4398 40.3357 17.0713 39.9181 16.6292L39.8936 10.1937C40.348 9.69013 40.9743 9.34624 41.9692 9.34624C43.5535 9.34624 44.6465 11.1148 44.6465 13.3869C44.6465 15.7081 43.5658 17.4398 41.9692 17.4398Z" fill="#6461FC"/>
<path fillRule="evenodd" clipRule="evenodd" d="M56.3754 5.48984C52.2365 5.48984 49.7311 8.99008 49.7311 13.3991C49.7311 18.6188 52.6909 21.2593 56.9281 21.2593C59.0036 21.2593 60.5634 20.7926 61.7424 20.1294V16.6538C60.5634 17.2433 59.2001 17.6117 57.4807 17.6117C55.7982 17.6117 54.2998 17.0222 54.1033 14.9712H62.6144C62.6144 14.8729 62.6267 14.6641 62.6267 14.4062C62.639 14.0624 62.6512 13.6693 62.6512 13.4237C62.6512 8.99008 60.4897 5.48984 56.3754 5.48984ZM54.0542 11.7903C54.0542 9.82522 55.2578 9.01464 56.3508 9.01464C57.407 9.01464 58.5492 9.82522 58.5492 11.7903H54.0542Z" fill="#6461FC"/>
<path d="M33.9248 5.7846H29.5525V20.9769H33.9248V5.7846Z" fill="#6461FC"/>
<path fillRule="evenodd" clipRule="evenodd" d="M24.6031 5.7846L24.8855 7.07416C25.9172 5.19509 27.9436 5.57581 28.5086 5.7846V9.7761C27.9559 9.57959 26.2242 9.33396 25.1926 10.6726V20.9646H20.8449V5.7846H24.6031Z" fill="#6461FC"/>
<path fillRule="evenodd" clipRule="evenodd" d="M16.1779 2.01417L11.9285 2.91072L11.9162 16.8134C11.9162 19.3803 13.8444 21.2716 16.4236 21.2716C17.8482 21.2716 18.8922 21.0137 19.4694 20.6944V17.1696C18.9167 17.3906 16.1657 18.1889 16.1657 15.6221V9.48134H19.4694V5.7846H16.1657L16.1779 2.01417Z" fill="#6461FC"/>
<path fillRule="evenodd" clipRule="evenodd" d="M5.8983 9.24799C4.97718 9.24799 4.42451 9.5059 4.42451 10.1814C4.42451 10.9183 5.38247 11.2499 6.57378 11.6429C8.51426 12.3061 11.0565 13.1658 11.0688 16.3713C11.0688 19.4785 8.57567 21.2716 4.9649 21.2716C3.46655 21.2716 1.83311 20.9769 0.211946 20.2768V16.1502C1.67345 16.9485 3.51568 17.538 4.9649 17.538C5.93514 17.538 6.63519 17.2801 6.63519 16.4818C6.63519 15.659 5.59126 15.2905 4.33854 14.8361C2.42262 14.1606 0.0154419 13.2886 0.0154419 10.4025C0.0154419 7.33207 2.36121 5.48984 5.8983 5.48984C7.34752 5.48984 8.77217 5.71091 10.2091 6.28814V10.3656C8.89499 9.65328 7.21242 9.24799 5.8983 9.24799Z" fill="#6461FC"/>
</svg>
