<svg width="125" height="32" viewBox="0 0 125 32" fill="none" xmlns="http://www.w3.org/2000/svg">
<path d="M58.3556 9.32903C57.6937 9.30834 57.1559 9.82547 57.1352 10.4667V16.424C54.3014 14.1487 50.1436 14.6038 47.8683 17.4376C46.9374 18.6167 46.4203 20.0646 46.4203 21.5747C46.3582 25.2153 49.2542 28.2146 52.8948 28.2767C56.5354 28.3387 59.5347 25.4428 59.5968 21.8022V10.5495C59.5968 10.2185 59.4726 9.90822 59.2451 9.68068C58.9969 9.45314 58.6866 9.32903 58.3556 9.32903ZM56.8043 23.1674C56.3906 24.1603 55.6045 24.9463 54.6116 25.3807C53.5774 25.8151 52.419 25.8151 51.3847 25.3807C50.3918 24.967 49.6265 24.1603 49.2128 23.1881C48.7784 22.1745 48.7784 21.0162 49.2128 19.9819C49.6265 18.989 50.4125 18.203 51.3847 17.7893C52.419 17.3549 53.5774 17.3549 54.6116 17.7893C55.6045 18.2237 56.3906 19.0097 56.8043 20.0026C57.2386 20.9955 57.2386 22.1538 56.8043 23.1674ZM72.1113 16.9205C69.5463 14.3555 65.3679 14.3555 62.803 16.9205C61.5619 18.1616 60.8792 19.8371 60.8792 21.5747C60.8172 25.2153 63.7131 28.2146 67.3537 28.2767C70.9943 28.3387 73.9937 25.4428 74.0557 21.8022V21.5747C74.0557 20.7059 73.8902 19.8578 73.5593 19.0511C73.2283 18.2443 72.7319 17.5204 72.1113 16.9205ZM71.2632 23.1467C71.0564 23.6432 70.7461 24.0776 70.3737 24.4499C70.0014 24.8222 69.5463 25.1325 69.0706 25.3394C68.0363 25.7738 66.878 25.7738 65.8437 25.3394C64.8508 24.9257 64.0648 24.1189 63.6511 23.1467C63.2167 22.1332 63.2167 20.9748 63.6511 19.9405C64.0648 18.9476 64.8508 18.1823 65.8437 17.7479C66.878 17.3135 68.0363 17.3135 69.0706 17.7479C69.567 17.9548 70.0014 18.265 70.3737 18.6374C70.7461 19.0097 71.0564 19.4648 71.2632 19.9405C71.6976 20.9955 71.6976 22.1538 71.2632 23.1467ZM99.3537 16.1965C99.3537 16.031 99.3123 15.8655 99.2503 15.7208C99.1882 15.576 99.0848 15.4518 98.9814 15.3277C98.8779 15.2243 98.7332 15.1209 98.5884 15.0588C98.4436 14.9968 98.2781 14.9554 98.1126 14.9554C97.8851 14.9554 97.6575 15.0175 97.4507 15.1416L90.4177 19.713V10.5701C90.4177 10.2392 90.2936 9.9289 90.0661 9.70136C89.8385 9.47382 89.5282 9.32903 89.1973 9.32903C88.5147 9.32903 87.9768 9.86684 87.9562 10.5495V26.9114C87.9562 27.2424 88.0803 27.5527 88.3078 27.7802C88.5353 28.0284 88.8456 28.1525 89.1766 28.1525C89.5076 28.1525 89.8178 28.0284 90.0454 27.7802C90.2729 27.5527 90.4177 27.2424 90.397 26.9114V22.671L91.8243 21.7401L97.2645 27.8423C97.492 28.0491 97.7816 28.1732 98.0919 28.1525C98.2574 28.1525 98.4229 28.1319 98.5677 28.0491C98.7125 27.9871 98.8366 27.9043 98.9607 27.7802C99.0641 27.6561 99.1675 27.532 99.2296 27.3872C99.2917 27.2424 99.333 27.0769 99.333 26.9114C99.333 26.6012 99.2089 26.2909 99.0021 26.0633L93.9549 20.3749L98.8779 17.1687C99.2089 16.9619 99.3744 16.5895 99.3537 16.1965ZM78.9374 18.6374C79.3097 18.265 79.7648 17.9548 80.2613 17.7479C80.7784 17.5411 81.3162 17.4169 81.8747 17.4169C82.3712 17.4169 82.8469 17.4997 83.302 17.6652C83.7571 17.8513 84.1915 18.0995 84.5638 18.4305C84.7913 18.6167 85.0809 18.6994 85.3705 18.6994C85.7015 18.7201 86.0324 18.596 86.26 18.3478C86.4875 18.1202 86.6116 17.7893 86.6116 17.4583C86.6116 17.1067 86.4668 16.755 86.1772 16.5275C84.9982 15.4725 83.4675 14.8933 81.8747 14.9347C78.2341 14.9347 75.2761 17.8927 75.2761 21.5333C75.2761 25.1739 78.2134 28.1112 81.8333 28.1319C83.4261 28.1319 84.9568 27.5734 86.1565 26.5391C86.4048 26.3116 86.5496 25.9806 86.5496 25.629C86.5703 24.967 86.0531 24.4292 85.4119 24.4085H85.3291C85.0396 24.4085 84.7706 24.4913 84.5431 24.6568C84.1708 24.9877 83.7571 25.2359 83.302 25.4221C82.8469 25.5876 82.3505 25.6703 81.8747 25.6703C81.3162 25.6703 80.7784 25.5669 80.2613 25.3394C79.7648 25.1325 79.3304 24.8222 78.9374 24.4499C77.324 22.8365 77.324 20.2301 78.9167 18.6167C78.9374 18.658 78.9374 18.658 78.9374 18.6374ZM123.783 15.8035C123.535 15.576 123.266 15.4105 122.956 15.307C122.604 15.1829 122.232 15.1002 121.859 15.0588C121.487 15.0175 121.115 14.9968 120.742 14.9968C119.998 14.9968 119.232 15.1209 118.529 15.3898C117.826 15.638 117.184 16.0103 116.605 16.4654V16.2172C116.584 15.5346 116.005 15.0175 115.323 15.0381C115.013 15.0485 114.719 15.176 114.5 15.3949C114.281 15.6138 114.154 15.9078 114.144 16.2172V26.9528C114.164 27.6354 114.743 28.1525 115.426 28.1319C115.736 28.1215 116.029 27.994 116.248 27.7751C116.467 27.5562 116.595 27.2622 116.605 26.9528V21.5953C116.605 21.0368 116.709 20.499 116.936 19.9819C117.143 19.4855 117.433 19.0511 117.826 18.6787C118.198 18.3064 118.653 17.9961 119.129 17.7893C119.646 17.5824 120.184 17.4583 120.742 17.4583C121.301 17.4583 121.839 17.5617 122.356 17.7479C122.521 17.8306 122.687 17.872 122.873 17.872C123.038 17.872 123.204 17.8513 123.349 17.7686C123.493 17.7065 123.617 17.6238 123.742 17.4997C123.845 17.3963 123.948 17.2515 124.01 17.1067C124.073 16.9619 124.114 16.7964 124.114 16.6309C124.135 16.3206 124.01 16.031 123.783 15.8035ZM112.365 19.0511C111.31 16.6102 108.91 15.0175 106.263 14.9968C102.622 14.9968 99.6847 17.9341 99.664 21.5747C99.664 25.2153 102.622 28.1732 106.263 28.1732C107.835 28.1732 109.365 27.6147 110.565 26.5805L110.606 26.5391C110.71 26.4564 110.813 26.3529 110.875 26.2288C111.268 25.6496 111.124 24.8843 110.565 24.4913C110.089 24.181 109.469 24.243 109.055 24.6361C109.014 24.6774 108.89 24.7809 108.89 24.8015L108.869 24.8222C108.517 25.1118 108.124 25.3601 107.69 25.5048C107.235 25.6703 106.759 25.7531 106.263 25.7324C105.807 25.7324 105.373 25.6703 104.939 25.5255C104.525 25.3807 104.132 25.1946 103.78 24.9257C103.429 24.6774 103.118 24.3672 102.87 24.0155C102.601 23.6639 102.415 23.2502 102.291 22.8365H111.599C111.93 22.8365 112.241 22.7123 112.468 22.4848C112.716 22.2573 112.84 21.947 112.82 21.616C112.84 20.7266 112.675 19.8578 112.365 19.0511ZM102.291 20.3749C102.415 19.9405 102.601 19.5475 102.87 19.1959C103.118 18.8442 103.429 18.5339 103.78 18.2857C104.132 18.0375 104.525 17.8306 104.939 17.6858C105.352 17.541 105.807 17.479 106.242 17.479C106.676 17.479 107.131 17.541 107.545 17.6858C108.372 17.9548 109.096 18.4926 109.614 19.1959C109.882 19.5475 110.069 19.9612 110.213 20.3749H102.291ZM119.584 26.3736C119.108 26.3736 118.736 26.7666 118.736 27.2424C118.736 27.7182 119.129 28.0905 119.605 28.0905C120.08 28.0905 120.453 27.6975 120.453 27.2424C120.453 26.746 120.06 26.3736 119.584 26.3736ZM119.584 27.9043C119.211 27.925 118.901 27.6354 118.881 27.2631C118.86 26.8908 119.149 26.5805 119.522 26.5598C119.894 26.5391 120.204 26.8287 120.225 27.201V27.2424C120.246 27.5941 119.956 27.9043 119.605 27.9043H119.584Z" fill="#0091E2"/>
<path d="M119.791 27.2424C119.894 27.2217 119.956 27.139 119.956 27.0355C119.956 26.9528 119.935 26.8908 119.873 26.8494C119.791 26.808 119.687 26.7873 119.584 26.7873C119.48 26.7873 119.356 26.7873 119.253 26.808V27.6561H119.439V27.3251H119.522C119.625 27.3251 119.687 27.3665 119.708 27.4492C119.729 27.5113 119.749 27.594 119.77 27.6561H119.977C119.935 27.594 119.915 27.5113 119.915 27.4492C119.935 27.3665 119.873 27.2838 119.791 27.2424ZM119.542 27.1803H119.439V26.9321H119.542C119.667 26.9321 119.729 26.9942 119.729 27.0562C119.749 27.139 119.646 27.201 119.542 27.1803ZM44.1656 12.1008C44.0415 11.9974 42.9245 11.1493 40.525 11.1493C39.9044 11.1493 39.2632 11.2114 38.6426 11.3148C38.1876 8.14996 35.5606 6.61926 35.4571 6.53652L34.8159 6.16418L34.4022 6.76405C33.8851 7.57078 33.492 8.48092 33.2645 9.41176C32.8301 11.2114 33.099 12.9076 34.0092 14.3555C32.9128 14.9761 31.1339 15.1209 30.7616 15.1416L1.38861 15.1416C0.623256 15.1416 0.00269977 15.7621 0.00269977 16.5275C-0.0386706 19.0924 0.395719 21.6574 1.28518 24.0776C2.29876 26.7253 3.80878 28.6904 5.75318 29.8901C7.94582 31.2346 11.5244 32 15.558 32C17.3783 32 19.1986 31.8345 20.9982 31.5035C23.5011 31.0485 25.9006 30.1797 28.1139 28.9179C29.9342 27.863 31.5683 26.5184 32.9542 24.9463C35.2916 22.3193 36.6776 19.382 37.6911 16.7757H38.1048C40.6491 16.7757 42.2212 15.7621 43.09 14.8933C43.6692 14.3555 44.1035 13.6936 44.4138 12.9489L44.6 12.4111L44.1656 12.1008Z" fill="#0091E2"/>
<path d="M4.11907 14.2935H8.04926C8.23543 14.2935 8.40091 14.1487 8.40091 13.9418L8.40091 10.4253C8.40091 10.2392 8.25611 10.0737 8.04926 10.0737H4.11907C3.93291 10.0737 3.76743 10.2185 3.76743 10.4253L3.76743 13.9418C3.78811 14.1487 3.93291 14.2935 4.11907 14.2935ZM9.5386 14.2935L13.4688 14.2935C13.6549 14.2935 13.8204 14.1487 13.8204 13.9418V10.4253C13.8204 10.2392 13.6756 10.0737 13.4688 10.0737L9.5386 10.0737C9.35243 10.0737 9.18695 10.2185 9.18695 10.4253L9.18695 13.9418C9.20763 14.1487 9.35243 14.2935 9.5386 14.2935ZM15.0615 14.2935H18.9917C19.1779 14.2935 19.3434 14.1487 19.3434 13.9418V10.4253C19.3434 10.2392 19.1986 10.0737 18.9917 10.0737H15.0615C14.8754 10.0737 14.7099 10.2185 14.7099 10.4253V13.9418C14.7099 14.1487 14.8547 14.2935 15.0615 14.2935ZM20.5017 14.2935H24.4319C24.6181 14.2935 24.7836 14.1487 24.7836 13.9418V10.4253C24.7836 10.2392 24.6388 10.0737 24.4319 10.0737H20.5017C20.3156 10.0737 20.1501 10.2185 20.1501 10.4253V13.9418C20.1501 14.1487 20.3156 14.2935 20.5017 14.2935ZM9.5386 9.26697L13.4688 9.26697C13.6549 9.26697 13.8204 9.10149 13.8204 8.91532L13.8204 5.39884C13.8204 5.21267 13.6756 5.04719 13.4688 5.04719H9.5386C9.35243 5.04719 9.18695 5.19198 9.18695 5.39884V8.91532C9.20763 9.10149 9.35243 9.26697 9.5386 9.26697ZM15.0615 9.26697H18.9917C19.1779 9.26697 19.3434 9.10149 19.3434 8.91532V5.39884C19.3434 5.21267 19.1986 5.04719 18.9917 5.04719H15.0615C14.8754 5.04719 14.7099 5.19198 14.7099 5.39884L14.7099 8.91532C14.7099 9.10149 14.8547 9.26697 15.0615 9.26697ZM20.5017 9.26697H24.4319C24.6181 9.26697 24.7836 9.10149 24.7836 8.91532V5.39884C24.7836 5.21267 24.6181 5.04719 24.4319 5.04719L20.5017 5.04719C20.3156 5.04719 20.1501 5.19198 20.1501 5.39884V8.91532C20.1501 9.10149 20.3156 9.26697 20.5017 9.26697ZM20.5017 4.21978L24.4319 4.21978C24.6181 4.21978 24.7836 4.07499 24.7836 3.86813V0.351651C24.7836 0.165484 24.6181 0 24.4319 0L20.5017 0C20.3156 0 20.1501 0.144799 20.1501 0.351651V3.86813C20.1501 4.0543 20.3156 4.21978 20.5017 4.21978ZM25.9833 14.2935H29.9135C30.0997 14.2935 30.2652 14.1487 30.2652 13.9418V10.4253C30.2652 10.2392 30.1204 10.0737 29.9135 10.0737H25.9833C25.7972 10.0737 25.6317 10.2185 25.6317 10.4253V13.9418C25.6524 14.1487 25.7972 14.2935 25.9833 14.2935Z" fill="#0091E2"/>
</svg>
