<svg width="118" height="32" viewBox="0 0 118 32" fill="none" xmlns="http://www.w3.org/2000/svg">
<path d="M14.3403 12.8362C12.7072 5.63198 9.30347 3.71411 8.4352 2.35838C8.07717 1.76114 7.76 1.14035 7.48587 0.500244C7.44 1.14024 7.35573 1.54344 6.81173 2.02878C5.71947 3.00264 1.08053 6.78291 0.690133 14.9685C0.3264 22.6005 6.3008 27.3066 7.09013 27.793C7.69707 28.0917 8.43627 27.7994 8.7968 27.5253C11.6768 25.5488 15.6117 20.2794 14.3435 12.8362" fill="#10AA50"/>
<path d="M7.73332 23.7291C7.58292 25.6182 7.47519 26.7158 7.09332 27.7953C7.09332 27.7953 7.34399 29.5937 7.51999 31.4987H8.14292C8.29151 30.1572 8.51839 28.8255 8.82239 27.5105C8.01599 27.1137 7.76426 25.3867 7.73332 23.7291Z" fill="#B8C4C2"/>
<path d="M8.82131 27.5114C8.00638 27.1349 7.77065 25.3717 7.73438 23.729C7.93592 21.0193 7.99467 18.3009 7.91038 15.585C7.86772 14.16 7.93065 2.38609 7.55945 0.662354C7.81337 1.24616 8.10593 1.8124 8.43518 2.35729C9.30345 3.71409 12.7082 5.63195 14.3402 12.8362C15.6117 20.2666 11.6981 25.5221 8.82131 27.5114Z" fill="#12924F"/>
<path d="M116.235 24.9066C115.886 24.9066 115.545 24.8034 115.254 24.61C114.964 24.4166 114.737 24.1417 114.602 23.8198C114.468 23.4979 114.431 23.1433 114.497 22.8007C114.564 22.4581 114.73 22.1428 114.975 21.8944C115.22 21.6459 115.533 21.4755 115.875 21.4045C116.216 21.3335 116.571 21.365 116.895 21.4952C117.219 21.6254 117.497 21.8484 117.694 22.1361C117.892 22.4239 117.999 22.7636 118.004 23.1125C118.011 23.3478 117.969 23.5819 117.883 23.8008C117.797 24.0197 117.667 24.219 117.502 24.3865C117.336 24.5541 117.139 24.6865 116.921 24.7759C116.703 24.8653 116.47 24.9097 116.235 24.9066ZM116.235 21.5274C115.916 21.5253 115.604 21.6179 115.337 21.7934C115.071 21.9689 114.863 22.2194 114.739 22.5133C114.616 22.8072 114.582 23.1311 114.643 23.4442C114.703 23.7572 114.855 24.0452 115.08 24.2717C115.304 24.4982 115.591 24.653 115.903 24.7165C116.216 24.78 116.54 24.7493 116.835 24.6284C117.13 24.5074 117.382 24.3017 117.56 24.0371C117.738 23.7726 117.834 23.4612 117.835 23.1424C117.839 22.9304 117.8 22.7198 117.722 22.5229C117.643 22.3261 117.525 22.1471 117.376 21.9965C117.227 21.8459 117.049 21.7268 116.853 21.6462C116.657 21.5656 116.447 21.5253 116.235 21.5274ZM116.661 24.256L116.205 23.2714H115.837V24.256H115.569V22.016H116.229C116.721 22.016 116.926 22.2293 116.926 22.6421C116.926 22.9706 116.771 23.1754 116.483 23.2384L116.955 24.2528L116.661 24.256ZM115.847 23.04H116.235C116.548 23.04 116.668 22.9333 116.668 22.6474C116.668 22.3616 116.554 22.2645 116.201 22.2645H115.847V23.04Z" fill="#21313C"/>
<path d="M89.8976 23.2939C90.3765 23.6768 91.3333 23.8347 92.1771 23.8347C93.2704 23.8347 94.3424 23.632 95.3899 22.6859C96.4565 21.7163 97.1904 20.2325 97.1904 17.8635C97.1904 15.5872 96.3243 13.7397 94.5472 12.6581C93.5445 12.0277 92.2453 11.7792 90.7637 11.7792C90.3371 11.7792 89.8976 11.8016 89.648 11.9147C89.5457 11.9954 89.4732 12.1081 89.4421 12.2347C89.3973 12.64 89.3973 15.7269 89.3973 17.552C89.3973 19.4229 89.3973 22.032 89.4421 22.352C89.4656 22.6229 89.6021 23.0987 89.8976 23.2981V23.2939ZM85.3493 10.7659C85.7365 10.7659 87.2085 10.8331 87.8933 10.8331C89.1733 10.8331 90.0576 10.7659 92.4501 10.7659C94.4555 10.7659 96.1429 11.3067 97.3493 12.3424C98.8085 13.6053 99.5893 15.3621 99.5893 17.5029C99.5893 20.5451 98.2027 22.3029 96.8085 23.2939C95.4219 24.3307 93.6181 24.9163 91.0485 24.9163C89.6811 24.9163 87.3333 24.8715 85.3739 24.8491H85.3333C85.2416 24.6688 85.5008 23.9659 85.6608 23.9477C86.1941 23.888 86.3349 23.8667 86.5803 23.7653C86.9941 23.5957 87.0912 23.3845 87.1371 22.6411C87.2053 21.2437 87.1829 19.5765 87.1829 17.6832C87.1829 16.3317 87.2053 13.6949 87.1605 12.8608C87.0912 12.1632 86.7968 11.9829 86.2005 11.8475C85.7777 11.7576 85.3504 11.69 84.9205 11.6448C84.8757 11.5093 85.2256 10.8981 85.3397 10.7659" fill="#21313C"/>
<path d="M105.237 11.9094C105.147 11.9318 105.033 12.158 105.033 12.27C105.009 13.0817 104.987 15.199 104.987 16.6636C104.992 16.6915 105.006 16.7172 105.027 16.7373C105.047 16.7574 105.073 16.7711 105.101 16.7766C105.396 16.799 106.126 16.8225 106.741 16.8225C107.607 16.8225 108.109 16.7094 108.382 16.574C109.111 16.2134 109.449 15.4241 109.449 14.5686C109.449 12.6081 108.081 11.8646 106.053 11.8646C105.779 11.8612 105.505 11.8761 105.233 11.9094H105.237ZM110.406 20.9228C110.406 18.9398 108.947 17.8134 106.281 17.8134C106.167 17.8134 105.321 17.791 105.119 17.8358C105.051 17.8582 104.982 17.903 104.982 17.9489C104.982 19.3686 104.959 21.6438 105.028 22.5452C105.074 22.9281 105.348 23.4689 105.689 23.6268C106.053 23.8294 106.874 23.8742 107.443 23.8742C109.015 23.8742 110.406 22.9964 110.406 20.9228ZM101.12 10.8054C101.326 10.8054 101.932 10.8726 103.482 10.8726C104.94 10.8726 106.125 10.8278 107.535 10.8278C109.29 10.8278 111.705 11.4593 111.705 14.0726C111.705 15.3526 110.794 16.3937 109.609 16.8897C109.54 16.9121 109.54 16.9569 109.609 16.9793C111.295 17.406 112.775 18.4438 112.775 20.4268C112.775 22.3649 111.568 23.582 109.813 24.3478C108.747 24.8214 107.421 24.9782 106.08 24.9782C105.055 24.9782 102.307 24.8716 100.78 24.8886C100.62 24.8214 100.926 24.0993 101.062 23.9873C101.412 23.9765 101.76 23.9221 102.096 23.8252C102.642 23.6908 102.707 23.5148 102.775 22.703C102.821 22.0044 102.821 19.503 102.821 17.7228C102.821 15.2886 102.845 13.6449 102.821 12.8332C102.799 12.2028 102.571 11.999 102.138 11.887C101.796 11.8188 101.227 11.7516 100.771 11.6844C100.657 11.5713 101.008 10.895 101.121 10.8054" fill="#21313C"/>
<path d="M19.3867 24.9066C19.328 24.7624 19.3042 24.6063 19.3173 24.4511C19.3122 24.3454 19.3362 24.2402 19.3867 24.1471C19.6814 24.1046 19.9734 24.0451 20.2613 23.969C20.6645 23.8687 20.816 23.649 20.8395 23.1349C20.9056 21.9199 20.9099 19.6405 20.8864 18.0383V17.9914C20.8864 17.8186 20.8864 17.5839 20.6731 17.4186C20.2981 17.1833 19.891 17.0037 19.4645 16.8853C19.2736 16.8287 19.168 16.7285 19.1733 16.6111C19.1787 16.4938 19.2992 16.3551 19.5477 16.3061C20.208 16.2389 21.9381 15.8261 22.6176 15.5125C22.6876 15.6036 22.72 15.7181 22.7083 15.8325C22.7083 15.9029 22.6976 15.9775 22.6901 16.0543C22.6709 16.2805 22.6496 16.5375 22.6496 16.7935C22.6538 16.8246 22.6665 16.8539 22.6865 16.8782C22.7064 16.9024 22.7327 16.9206 22.7624 16.9307C22.7921 16.9408 22.8241 16.9423 22.8546 16.9353C22.8852 16.9282 22.9132 16.9127 22.9355 16.8906C24.2293 15.8762 25.3888 15.5146 25.9829 15.5146C26.9611 15.5146 27.7227 15.9818 28.3125 16.9439C28.326 16.9671 28.3453 16.9865 28.3685 17.0001C28.3916 17.0138 28.4179 17.0212 28.4448 17.0218C28.4692 17.0216 28.4932 17.0154 28.5148 17.0039C28.5363 16.9924 28.5548 16.9758 28.5685 16.9557C29.7579 16.0533 30.9365 15.5146 31.7259 15.5146C33.5904 15.5146 34.7051 16.9109 34.7051 19.2479C34.7051 19.9199 34.6987 20.7722 34.6923 21.5669C34.6869 22.2645 34.6816 22.9183 34.6816 23.3706C34.6816 23.4773 34.8288 23.7845 35.0496 23.8453C35.3227 23.9786 35.7163 24.0469 36.2144 24.1322H36.2336C36.2709 24.2666 36.192 24.7882 36.1163 24.8949C35.9925 24.8949 35.8219 24.8842 35.6085 24.8735C35.2213 24.8543 34.6901 24.8277 34.0725 24.8277C32.8331 24.8277 32.1856 24.8511 31.5669 24.8917C31.52 24.737 31.504 24.2378 31.5605 24.1333C31.8167 24.0932 32.0703 24.038 32.32 23.9679C32.7147 23.8378 32.8288 23.6586 32.8533 23.1349C32.8629 22.7626 32.9344 19.4826 32.8075 18.7039C32.6901 17.8965 32.0821 16.9514 30.752 16.9514C30.2581 16.9514 29.4613 17.1573 28.7019 17.7333C28.6547 17.7866 28.6283 17.8551 28.6272 17.9263V17.9423C28.7168 18.3626 28.7168 18.8533 28.7168 19.5946C28.7168 20.0213 28.7168 20.4661 28.7115 20.9109C28.7061 21.8154 28.7019 22.6687 28.7168 23.3141C28.7168 23.7535 28.9824 23.8591 29.1968 23.9434C29.3131 23.969 29.4048 23.9914 29.4976 24.0127C29.6757 24.0565 29.8613 24.1013 30.1376 24.145C30.1785 24.3324 30.1748 24.5267 30.1269 24.7125C30.1156 24.7822 30.0882 24.8483 30.0469 24.9055C29.3579 24.8821 28.6507 24.8618 27.6299 24.8618C27.3205 24.8618 26.816 24.8746 26.3701 24.8863C26.0085 24.8959 25.6672 24.9055 25.4731 24.9066C25.4205 24.7827 25.3972 24.6484 25.4048 24.5141C25.3939 24.3875 25.4186 24.2604 25.4763 24.1471L25.7504 24.097C25.9893 24.0543 26.1963 24.0181 26.3904 23.969C26.7275 23.8623 26.8544 23.6789 26.8789 23.249C26.9451 22.2463 26.9963 19.3567 26.8544 18.6335C26.6133 17.473 25.9531 16.8842 24.8907 16.8842C24.2688 16.8842 23.4827 17.1839 22.8405 17.665C22.7788 17.7251 22.7301 17.7974 22.6976 17.8772C22.6651 17.9571 22.6495 18.0428 22.6517 18.129C22.6517 18.4735 22.6517 18.8831 22.6517 19.3226C22.6517 20.7733 22.6421 22.5791 22.6773 23.3599C22.6987 23.601 22.784 23.8869 23.2352 23.9914C23.3344 24.0202 23.5051 24.0479 23.7035 24.081C23.8176 24.1002 23.9424 24.1205 24.0715 24.1439C24.1125 24.3993 24.0916 24.6609 24.0107 24.9066C23.8123 24.9066 23.568 24.8938 23.2885 24.8821C22.8619 24.8629 22.3285 24.8394 21.7259 24.8394C21.0133 24.8394 20.5173 24.8629 20.1195 24.8821C19.8517 24.8949 19.6203 24.9055 19.3888 24.9066" fill="#21313C"/>
<path d="M42.2613 16.479C41.8763 16.471 41.4977 16.5775 41.1733 16.7851C40.3819 17.2662 39.9787 18.2273 39.9787 19.6395C39.9787 22.2827 41.3024 24.1291 43.1979 24.1291C43.7061 24.1452 44.2018 23.9697 44.5867 23.6374C45.1691 23.1627 45.4784 22.1921 45.4784 20.8331C45.4784 18.2294 44.1845 16.479 42.2592 16.479H42.2613ZM42.624 25.1094C39.2 25.1094 37.9808 22.5974 37.9808 20.2475C37.9808 18.6059 38.6517 17.3227 39.9755 16.4321C40.9026 15.8581 41.9668 15.5435 43.0571 15.5211C45.6693 15.5211 47.4944 17.3995 47.4944 20.0907C47.4944 21.919 46.7659 23.3633 45.3867 24.2657C44.7243 24.671 43.5733 25.1094 42.624 25.1094Z" fill="#21313C"/>
<path d="M77.12 16.479C76.7342 16.4702 76.3547 16.5768 76.0299 16.7851C75.2384 17.2662 74.8352 18.2273 74.8352 19.6395C74.8352 22.2827 76.1589 24.1291 78.0544 24.1291C78.5641 24.1463 79.0615 23.9707 79.4474 23.6374C80.0298 23.1627 80.3381 22.1921 80.3381 20.8331C80.3381 18.2294 79.0453 16.479 77.12 16.479ZM77.4848 25.1094C74.0608 25.1094 72.8416 22.5974 72.8416 20.2486C72.8416 18.6049 73.5125 17.3227 74.8373 16.4321C75.7639 15.8577 76.8279 15.5431 77.9178 15.5211C80.5301 15.5211 82.3552 17.4006 82.3552 20.0897C82.3552 21.9201 81.6266 23.3633 80.2474 24.2646C79.585 24.671 78.4341 25.1094 77.4848 25.1094Z" fill="#21313C"/>
<path d="M65.5915 16.3893C64.5365 16.3893 63.8539 17.2223 63.8539 18.5119C63.8539 19.8015 64.4416 21.3343 66.0939 21.3343C66.3776 21.3343 66.8917 21.2085 67.1467 20.9279C67.5307 20.5749 67.7867 19.8453 67.7867 19.0751C67.7867 17.393 66.9675 16.3893 65.5968 16.3893H65.5915ZM65.4603 25.2895C65.1622 25.2863 64.8684 25.3597 64.6069 25.5028C63.7717 26.0362 63.3845 26.5695 63.3845 27.1892C63.3845 27.7695 63.6096 28.2314 64.0939 28.641C64.6805 29.1381 65.472 29.3802 66.512 29.3802C68.5589 29.3802 69.4763 28.2794 69.4763 27.1892C69.4763 26.4298 69.0955 25.921 68.3115 25.633C67.7077 25.4122 66.6987 25.2906 65.4635 25.2906L65.4603 25.2895ZM65.6 30.5173C64.3712 30.5173 63.4859 30.258 62.7296 29.6756C61.9936 29.1082 61.6629 28.2655 61.6629 27.6831C61.6709 27.3078 61.8141 26.948 62.0661 26.6698C62.2795 26.4266 62.7755 25.9711 63.9221 25.1828C63.9399 25.1753 63.9551 25.1627 63.9657 25.1465C63.9763 25.1304 63.9819 25.1115 63.9819 25.0922C63.9822 25.0706 63.9752 25.0496 63.9621 25.0325C63.9489 25.0155 63.9303 25.0034 63.9093 24.9983C62.9653 24.6367 62.6805 24.0383 62.5941 23.7183C62.5941 23.7066 62.5941 23.6885 62.5845 23.6682C62.5579 23.5423 62.5323 23.4229 62.704 23.3002C62.8363 23.2063 63.0475 23.0805 63.2736 22.9471C63.5928 22.7704 63.899 22.5712 64.1899 22.3509C64.2055 22.334 64.2171 22.3139 64.2237 22.2919C64.2304 22.27 64.2319 22.2468 64.2282 22.2241C64.2245 22.2015 64.2156 22.18 64.2023 22.1612C64.189 22.1425 64.1716 22.1271 64.1515 22.1162C62.7541 21.6469 62.0501 20.609 62.0501 19.0229C62.0458 18.5282 62.1609 18.0399 62.3856 17.5993C62.6103 17.1586 62.938 16.7787 63.3408 16.4917C63.9029 16.0469 65.3141 15.5125 66.2283 15.5125H66.2816C67.2213 15.5349 67.7515 15.7322 68.4853 16.0031C68.9028 16.1541 69.3451 16.2243 69.7888 16.2101C70.5664 16.2101 70.9067 15.9637 71.1989 15.6767C71.2463 15.806 71.2716 15.9423 71.2736 16.0799C71.2915 16.4079 71.2024 16.7328 71.0197 17.0058C70.8608 17.2266 70.4864 17.3866 70.144 17.3866C70.1088 17.3866 70.0747 17.3866 70.0373 17.3813C69.8572 17.3686 69.6786 17.3389 69.504 17.2927L69.4165 17.3237C69.3888 17.3642 69.4069 17.409 69.4293 17.4666C69.4348 17.4778 69.4391 17.4896 69.4421 17.5018C69.5046 17.7865 69.547 18.0752 69.5691 18.3658C69.5691 20.0245 68.9152 20.7466 68.208 21.2821C67.5243 21.7951 66.7123 22.1095 65.8613 22.1908C65.8432 22.1908 65.7547 22.1983 65.5883 22.2133C65.4816 22.2229 65.3429 22.2357 65.3227 22.2357H65.3024C65.1488 22.2783 64.7477 22.4693 64.7477 22.8245C64.7477 23.1189 64.9291 23.4847 65.7963 23.5508L66.3573 23.5903C67.5008 23.6703 68.9291 23.7695 69.6011 23.9967C70.0468 24.1535 70.4318 24.4468 70.7013 24.835C70.9707 25.2231 71.1109 25.6864 71.1019 26.1589C71.1019 27.6469 70.0437 29.0463 68.272 29.9018C67.4365 30.3009 66.5217 30.5061 65.5957 30.5023" fill="#21313C"/>
<path d="M60.3584 24.113C59.8571 24.0458 59.4912 23.9775 59.0592 23.7749C58.9744 23.6871 58.9186 23.5754 58.8992 23.4549C58.8533 22.7562 58.8533 20.7285 58.8533 19.4015C58.8533 18.3189 58.672 17.3749 58.2133 16.6975C57.6661 15.9306 56.8917 15.4805 55.8891 15.4805C55.0005 15.4805 53.8155 16.0885 52.8363 16.9226C52.8128 16.945 52.6624 17.0879 52.6656 16.8661C52.6688 16.6442 52.7029 16.1941 52.7243 15.9061C52.7337 15.8296 52.7252 15.7519 52.6992 15.6793C52.6733 15.6067 52.6307 15.5411 52.5749 15.4879C51.9349 15.8079 50.1397 16.2346 49.4752 16.2997C48.9909 16.3935 48.8683 16.8597 49.3856 17.0207H49.3931C49.8072 17.1349 50.2024 17.3088 50.5664 17.537C50.7712 17.6949 50.7488 17.9199 50.7488 18.1002C50.7712 19.6095 50.7712 21.9306 50.7029 23.1925C50.6805 23.6885 50.5429 23.8687 50.1781 23.9594L50.2123 23.9477C49.9345 24.0173 49.6527 24.07 49.3685 24.1055C49.2544 24.2175 49.2544 24.8714 49.3685 25.0069C49.5968 25.0069 50.7552 24.9397 51.7152 24.9397C53.0357 24.9397 53.7195 25.0069 54.0619 25.0069C54.1995 24.849 54.2443 24.241 54.1536 24.1055C53.8381 24.0913 53.5247 24.0459 53.2181 23.9701C52.8544 23.8805 52.7627 23.6991 52.7403 23.2949C52.6955 22.2346 52.6955 19.9818 52.6955 18.449C52.6955 18.0223 52.8085 17.8186 52.9451 17.7023C53.4005 17.297 54.1536 17.0271 54.8139 17.0271C55.4539 17.0271 55.8805 17.2298 56.2005 17.4997C56.5733 17.8249 56.8069 18.2808 56.8533 18.7733C56.944 19.6266 56.9205 21.3429 56.9205 22.8266C56.9205 23.6383 56.8533 23.8421 56.5568 23.9317C56.4203 23.9989 56.0555 24.0671 55.6224 24.1119C55.4859 24.2474 55.5307 24.8778 55.6224 25.0133C56.2144 25.0133 56.9024 24.9461 57.9008 24.9461C59.1541 24.9461 59.952 25.0133 60.2709 25.0133C60.4075 24.8554 60.4533 24.2666 60.3627 24.1119" fill="#21313C"/>
</svg>
