<svg width="121" height="32" viewBox="0 0 121 32" fill="none" xmlns="http://www.w3.org/2000/svg">
<path fillRule="evenodd" clipRule="evenodd" d="M43.8513 10.0064L43.9526 11.8168C45.1081 10.4166 46.6253 9.71651 48.5032 9.71651C51.7573 9.71651 53.4137 11.5845 53.4713 15.3205V25.672H49.9626V15.5231C49.9626 14.529 49.7485 13.7935 49.3202 13.315C48.8919 12.8373 48.191 12.5984 47.2183 12.5984C45.8025 12.5984 44.7474 13.2408 44.0555 14.5241V25.672H40.5452V10.0064H43.8529H43.8513ZM63.9299 25.9619C61.706 25.9619 59.9023 25.2602 58.521 23.8559C57.139 22.4516 56.4479 20.5811 56.4479 18.2453V17.8112C56.4479 16.2479 56.7486 14.8502 57.3506 13.6197C57.9519 12.3892 58.7978 11.4313 59.8858 10.7452C60.9738 10.0608 62.187 9.71815 63.5263 9.71815C65.6537 9.71815 67.2985 10.3985 68.4582 11.7591C69.6195 13.1206 70.1994 15.0454 70.1994 17.5361V18.9552H59.9863C60.0934 20.2483 60.5233 21.2713 61.2794 22.0241C62.0355 22.7769 62.9868 23.1533 64.1325 23.1533C65.7402 23.1533 67.0498 22.5026 68.0612 21.1988L69.9531 23.0092C69.3271 23.9448 68.492 24.6713 67.4476 25.1877C66.4024 25.7041 65.2304 25.9619 63.9307 25.9619H63.9299ZM63.5114 12.5416C62.5478 12.5416 61.7711 12.8793 61.1789 13.5547C60.5859 14.23 60.2087 15.1715 60.0448 16.3781H66.7327V16.117C66.6553 14.9392 66.3423 14.0497 65.7937 13.4459C65.2444 12.843 64.4842 12.5416 63.5114 12.5416ZM77.3197 6.19958V10.0072H80.0789V12.6132H77.3197V21.3578C77.3197 21.9557 77.4383 22.3873 77.6739 22.6534C77.9094 22.9186 78.3311 23.0512 78.9381 23.0512C79.3514 23.05 79.7632 23.0014 80.1654 22.9062V25.6283C79.3664 25.8507 78.5963 25.9611 77.8542 25.9611C75.1585 25.9611 73.8102 24.4703 73.8102 21.4879V12.6124H71.2371V10.0064H73.8085V6.19875H77.318L77.3197 6.19958ZM86.4925 25.6728H82.9822V3.43463H86.4925V25.6728ZM94.0469 25.6728H90.5366V10.0072H94.0469V25.6728ZM90.32 5.93848C90.32 5.399 90.4904 4.95012 90.8322 4.59266C91.1749 4.23603 91.6633 4.0573 92.2983 4.0573C92.9342 4.0573 93.4251 4.23603 93.7726 4.59266C94.1186 4.95012 94.2915 5.399 94.2915 5.93931C94.2915 6.46973 94.1186 6.9112 93.7726 7.26372C93.4251 7.61623 92.9342 7.79249 92.2983 7.79249C91.6633 7.79249 91.1749 7.61623 90.8322 7.26372C90.4904 6.91202 90.32 6.46973 90.32 5.93931V5.93848ZM99.1024 25.6728V12.6124H96.7188V10.0064H99.1024V8.5733C99.1024 6.83542 99.5834 5.49454 100.546 4.54819C101.51 3.60265 102.857 3.12988 104.59 3.12988C105.207 3.12988 105.862 3.21636 106.555 3.39015L106.469 6.1411C106.026 6.05889 105.576 6.02027 105.126 6.02579C103.45 6.02579 102.612 6.88896 102.612 8.61695V10.0064H105.789V12.6124H102.612V25.672H99.1024V25.6728ZM113.821 20.6346L116.998 10.0072H120.739L114.529 28.0474C113.575 30.6822 111.958 32 109.675 32C109.165 32 108.601 31.9127 107.985 31.7389V29.0168L108.65 29.0604C109.535 29.0604 110.202 28.899 110.651 28.5753C111.098 28.2525 111.452 27.7097 111.712 26.947L112.217 25.6003L106.728 10.0072H110.513L113.821 20.6346Z" fill="#0E1E25"/>
<path d="M22.8624 10.9593L22.8509 10.9544C22.8443 10.9519 22.8377 10.9495 22.832 10.9437C22.8225 10.9335 22.8155 10.9214 22.8115 10.9081C22.8075 10.8948 22.8066 10.8808 22.8089 10.8671L23.4456 6.9746L26.4313 9.9611L23.3262 11.2822C23.3175 11.2857 23.3083 11.2874 23.299 11.2872H23.2866C23.2806 11.2832 23.275 11.2785 23.2701 11.2731C23.1546 11.1445 23.0164 11.0381 22.8624 10.9593ZM27.1931 10.7221L30.3855 13.9145C31.0485 14.5784 31.3805 14.9095 31.5015 15.2933C31.5197 15.3501 31.5345 15.407 31.546 15.4655L23.9167 12.2343C23.9126 12.2326 23.9085 12.231 23.9043 12.2294C23.8739 12.217 23.8385 12.203 23.8385 12.1717C23.8385 12.1404 23.8747 12.1256 23.9052 12.1133L23.9151 12.1091L27.1931 10.7221ZM31.4159 16.4901C31.2512 16.7997 30.9299 17.121 30.3863 17.6654L26.7871 21.2638L22.1319 20.2944L22.1072 20.2895C22.066 20.2829 22.0223 20.2755 22.0223 20.2384C22.0047 20.0464 21.9476 19.86 21.8548 19.691C21.762 19.5219 21.6354 19.3738 21.4829 19.2558C21.4639 19.2369 21.4689 19.2072 21.4746 19.18C21.4746 19.1759 21.4746 19.1718 21.4763 19.1685L22.3518 13.7935L22.3551 13.7754C22.36 13.7342 22.3674 13.6864 22.4045 13.6864C22.5921 13.6631 22.7732 13.6026 22.9373 13.5086C23.1013 13.4145 23.245 13.2888 23.3599 13.1387C23.3673 13.1304 23.3723 13.1214 23.3822 13.1164C23.4085 13.1041 23.4398 13.1164 23.467 13.128L31.4151 16.4901H31.4159ZM25.9593 22.0916L20.0407 28.0102L21.0537 21.7836L21.0554 21.7753C21.0562 21.7671 21.0579 21.7588 21.0603 21.7514C21.0686 21.7317 21.09 21.7234 21.1106 21.7152L21.1205 21.7111C21.3423 21.6164 21.5385 21.4705 21.6929 21.2853C21.7127 21.2622 21.7365 21.24 21.767 21.2358C21.7749 21.2345 21.783 21.2345 21.7909 21.2358L25.9585 22.0924L25.9593 22.0916ZM18.7879 29.263L18.1208 29.9301L10.7451 19.2706C10.7425 19.2667 10.7397 19.2629 10.7369 19.2591C10.7254 19.2435 10.713 19.2278 10.7155 19.2097C10.7155 19.1965 10.7245 19.185 10.7336 19.1751L10.7418 19.1644C10.7641 19.1315 10.783 19.0985 10.8036 19.0631L10.8201 19.0343L10.8226 19.0318C10.8341 19.012 10.8448 18.9931 10.8646 18.9824C10.8819 18.9741 10.9057 18.9774 10.9247 18.9816L19.096 20.6667C19.1188 20.6703 19.1404 20.6796 19.1586 20.6939C19.1693 20.7046 19.1717 20.7161 19.1742 20.7293C19.2312 20.945 19.3373 21.1445 19.4842 21.3124C19.631 21.4803 19.8147 21.6119 20.0209 21.6971C20.044 21.7086 20.0341 21.7341 20.0234 21.7613C20.018 21.7732 20.0139 21.7856 20.011 21.7984C19.9081 22.4243 19.0251 27.8093 18.7879 29.263ZM17.3943 30.6558C16.9026 31.1425 16.6127 31.4003 16.2849 31.5041C15.9617 31.6063 15.6148 31.6063 15.2916 31.5041C14.9078 31.3822 14.5759 31.0511 13.9128 30.3872L6.50589 22.9803L8.44061 19.9798C8.44967 19.965 8.45873 19.9518 8.47355 19.9411C8.49414 19.9263 8.52379 19.9328 8.5485 19.9411C8.99257 20.0751 9.46936 20.0509 9.89761 19.8727C9.91985 19.8645 9.94209 19.8587 9.95939 19.8744C9.96804 19.8823 9.97577 19.8911 9.98245 19.9007L17.3943 30.6566V30.6558ZM5.7918 22.2662L4.09264 20.567L7.44813 19.1356C7.4567 19.1318 7.46595 19.1299 7.47531 19.1298C7.50331 19.1298 7.51978 19.1578 7.53461 19.1833C7.56833 19.2352 7.60405 19.2858 7.64168 19.3349L7.65239 19.3481C7.66227 19.3621 7.65568 19.3761 7.6458 19.3892L5.79262 22.2662H5.7918ZM3.34066 19.8151L1.19098 17.6654C0.825282 17.2997 0.560071 17.0345 0.375577 16.8063L6.91194 18.162C6.92015 18.1636 6.92839 18.1649 6.93665 18.1662C6.97701 18.1727 7.02148 18.1802 7.02148 18.218C7.02148 18.2592 6.97289 18.2782 6.93171 18.2938L6.91276 18.302L3.34066 19.8151ZM0 15.701C0.00744908 15.5625 0.0323552 15.4255 0.0741271 15.2933C0.196025 14.9095 0.527126 14.5784 1.19098 13.9145L3.94191 11.1636C5.20853 13.0019 6.47857 14.8377 7.75205 16.6713C7.77429 16.7009 7.79899 16.7339 7.77346 16.7586C7.65321 16.8912 7.53296 17.0361 7.44813 17.1934C7.43892 17.2137 7.42476 17.2312 7.40694 17.2445C7.39624 17.2511 7.38471 17.2486 7.37235 17.2461H7.3707L0 15.7002V15.701ZM4.67824 10.4273L8.37554 6.72833C8.72394 6.8807 9.98986 7.41524 11.1207 7.89295C11.9773 8.25535 12.7581 8.5848 13.0035 8.69188C13.0282 8.70176 13.0505 8.71164 13.0612 8.73635C13.0678 8.75118 13.0645 8.77012 13.0612 8.78577C13.0026 9.05277 13.0114 9.33014 13.0865 9.59294C13.1617 9.85574 13.301 10.0957 13.492 10.2914C13.5167 10.3161 13.492 10.3515 13.4705 10.382L13.459 10.3993L9.70324 16.2166C9.69335 16.2331 9.68429 16.2471 9.66782 16.2578C9.64805 16.2701 9.62005 16.2644 9.59699 16.2586C9.45091 16.2203 9.30074 16.1999 9.14975 16.1977C9.01468 16.1977 8.86807 16.2224 8.71982 16.2496H8.71899C8.70252 16.252 8.6877 16.2553 8.67452 16.2454C8.65996 16.2335 8.64744 16.2194 8.63745 16.2034L4.67742 10.4273H4.67824ZM9.12422 5.98129L13.9128 1.19268C14.5759 0.529653 14.9078 0.197728 15.2916 0.0766538C15.6148 -0.0255513 15.9617 -0.0255513 16.2849 0.0766538C16.6687 0.197728 17.0006 0.529653 17.6637 1.19268L18.7014 2.23046L15.2957 7.50502C15.2873 7.52037 15.2758 7.53383 15.2619 7.54455C15.2414 7.55855 15.2125 7.55279 15.1878 7.54455C14.9193 7.46307 14.635 7.44823 14.3594 7.50133C14.0839 7.55443 13.8254 7.67386 13.6064 7.8493C13.5842 7.87236 13.5513 7.85918 13.5233 7.84683C13.0785 7.65327 9.61923 6.19132 9.12422 5.98129ZM19.4246 2.95361L22.5692 6.09825L21.8115 10.7913V10.8037C21.8108 10.8144 21.8086 10.8249 21.8049 10.835C21.7967 10.8514 21.7802 10.8547 21.7637 10.8597C21.6017 10.9088 21.4491 10.9848 21.3124 11.0845C21.3065 11.0887 21.301 11.0934 21.2959 11.0985C21.2868 11.1084 21.2778 11.1175 21.2629 11.1191C21.2509 11.1195 21.2389 11.1175 21.2275 11.1134L16.4356 9.07734L16.4266 9.07322C16.3961 9.06086 16.3599 9.04604 16.3599 9.01474C16.3317 8.74771 16.2445 8.49028 16.1045 8.26112C16.0815 8.22323 16.0559 8.18369 16.0757 8.14498L19.4246 2.95361ZM16.1861 10.0418L20.6782 11.9444C20.7029 11.9559 20.7301 11.9666 20.7408 11.9922C20.7451 12.0075 20.7451 12.0238 20.7408 12.0391C20.7276 12.105 20.7161 12.18 20.7161 12.2557V12.3818C20.7161 12.4131 20.6839 12.4262 20.6543 12.4386L20.6452 12.4419C19.9336 12.7458 10.6545 16.7026 10.6405 16.7026C10.6265 16.7026 10.6117 16.7026 10.5977 16.6885C10.573 16.6638 10.5977 16.6292 10.6199 16.5979C10.6239 16.5925 10.6277 16.587 10.6315 16.5815L14.323 10.8654L14.3296 10.8556C14.351 10.821 14.3757 10.7823 14.4153 10.7823L14.4523 10.788C14.5363 10.7996 14.6105 10.8103 14.6854 10.8103C15.2455 10.8103 15.7644 10.5376 16.0773 10.0715C16.0848 10.059 16.0943 10.0479 16.1053 10.0385C16.1276 10.022 16.1605 10.0303 16.1861 10.0418ZM11.0416 17.6069L21.1559 13.2935C21.1559 13.2935 21.1707 13.2935 21.1847 13.3075C21.2399 13.3627 21.2868 13.3998 21.3321 13.4344L21.3544 13.4484C21.375 13.4599 21.3956 13.4731 21.3972 13.4945C21.3972 13.5027 21.3972 13.5077 21.3956 13.5151L20.5291 18.8374L20.5258 18.8588C20.52 18.9 20.5143 18.947 20.4756 18.947C20.2445 18.9625 20.0208 19.0342 19.8238 19.1558C19.6267 19.2774 19.4623 19.4451 19.3447 19.6446L19.3406 19.6512C19.3291 19.6701 19.3183 19.6882 19.2994 19.6981C19.2821 19.7063 19.2599 19.7031 19.2417 19.6989L11.1759 18.0352C11.1677 18.0335 11.0507 17.6077 11.0416 17.6069Z" fill="url(#paint0_radial_5_340)"/>
<defs>
<radialGradient id="paint0_radial_5_340" cx="0" cy="0" r="1" gradientUnits="userSpaceOnUse" gradientTransform="translate(15.773 1.88443e-05) scale(31.5807 31.6155)">
<stop stop-color="#20C6B7"/>
<stop offset="1" stop-color="#4D9ABF"/>
</radialGradient>
</defs>
</svg>
