<svg width="128" height="16" viewBox="0 0 128 16" fill="none" xmlns="http://www.w3.org/2000/svg">
<path d="M53.1338 10.4095H61.2666L56.9663 3.49093L49.0737 16H45.4817L55.0817 0.973926C55.499 0.366788 56.1947 0 56.9663 0C57.7124 0 58.4081 0.354144 58.8129 0.948619L68.4508 16H64.8587L63.1638 13.2047H54.9298L53.1338 10.4095ZM90.446 13.2047V0.151785H87.3978V14.4822C87.3978 14.8743 87.5496 15.2537 87.8405 15.5446C88.1313 15.8356 88.5235 16 88.9535 16H102.854L104.65 13.2047H90.446ZM40.0176 10.8648C42.9774 10.8648 45.3805 8.47431 45.3805 5.51462C45.3805 2.55495 42.9774 0.151785 40.0177 0.151785H26.6826V16H29.7296V2.94703H39.8153C41.2319 2.94703 42.3702 4.098 42.3702 5.51462C42.3702 6.93122 41.2319 8.08221 39.8153 8.08221L31.2221 8.06955L40.3212 16H44.7481L38.6264 10.8648L40.0176 10.8648ZM7.92546 16C3.55034 16 0 12.4585 0 8.08221C0 3.70593 3.55038 0.151785 7.92542 0.151785H17.137C21.5133 0.151785 25.0612 3.70593 25.0612 8.08221C25.0612 12.4585 21.5133 16 17.137 16H7.92546ZM16.9322 13.2047C19.7667 13.2047 22.0623 10.9154 22.0623 8.08221C22.0623 5.249 19.7667 2.94703 16.9322 2.94703H8.12902C5.29583 2.94703 2.99886 5.249 2.99886 8.08221C2.99886 10.9154 5.29583 13.2047 8.12902 13.2047H16.9322ZM74.8128 16C70.4365 16 66.8824 12.4585 66.8824 8.08221C66.8824 3.70593 70.4365 0.151785 74.8128 0.151785H85.7535L83.9701 2.94703H75.0152C72.182 2.94703 69.8801 5.249 69.8801 8.08221C69.8801 10.9154 72.182 13.2047 75.0152 13.2047H86.0064L84.2104 16H74.8128ZM112.087 13.2047C109.747 13.2047 107.761 11.6363 107.154 9.4735H120.182L121.978 6.67824H107.154C107.761 4.52805 109.747 2.94703 112.087 2.94703H121.029L122.838 0.151785H111.885C107.508 0.151785 103.954 3.70593 103.954 8.08221C103.954 12.4585 107.508 16 111.885 16H121.282L123.078 13.2047H112.087ZM124.47 1.834C124.469 1.65114 124.505 1.46998 124.574 1.30094C124.644 1.1319 124.747 0.97831 124.876 0.849008C125.005 0.719706 125.159 0.617243 125.328 0.547511C125.497 0.47778 125.678 0.442157 125.861 0.44269C126.645 0.44269 127.265 1.06245 127.265 1.834C127.265 2.61817 126.645 3.23793 125.861 3.23793C125.089 3.23793 124.47 2.61817 124.47 1.834ZM125.861 3.63003C126.847 3.63003 127.644 2.83319 127.644 1.84664C127.644 0.860073 126.847 0.0632386 125.861 0.0632386C124.887 0.0632386 124.09 0.860073 124.09 1.84664C124.09 2.83319 124.887 3.63003 125.861 3.63003ZM125.696 0.78419C125.975 0.78419 126.089 0.796834 126.215 0.847409C126.569 0.961262 126.607 1.27746 126.607 1.40395C126.607 1.42924 126.607 1.49248 126.582 1.56836C126.569 1.64426 126.519 1.79603 126.342 1.90986C126.316 1.92252 126.304 1.93517 126.253 1.96048L126.708 2.7826H126.266L125.861 2.02371H125.583V2.7826H125.191V0.78419H125.696ZM125.836 1.69486C125.962 1.68221 126.089 1.68221 126.164 1.56836C126.202 1.51779 126.215 1.46719 126.215 1.39131C126.215 1.29012 126.152 1.20157 126.063 1.15098C125.975 1.11305 125.886 1.11305 125.696 1.11305H125.583V1.69486H125.836Z" fill="#F80000"/>
</svg>
