<svg width="125" height="28" viewBox="0 0 125 28" fill="none" xmlns="http://www.w3.org/2000/svg">
<path d="M14.9233 27.0406C14.1649 27.2305 13.1645 27.4316 11.9209 27.6447C10.6774 27.858 9.23842 27.9642 7.60383 27.9642C6.1826 27.9642 4.98608 27.7566 4.01494 27.3429C3.04364 26.9287 2.26199 26.3421 1.66998 25.5839C1.07765 24.8256 0.651268 23.9315 0.390662 22.9011C0.129892 21.8707 0 20.7285 0 19.4722V9.09717H3.30441V18.7615C3.30441 21.0123 3.65968 22.6232 4.37037 23.594C5.08091 24.5653 6.27693 25.0509 7.95893 25.0509C8.31436 25.0509 8.68116 25.0389 9.06062 25.0149C9.43927 24.9917 9.79437 24.9619 10.1264 24.9262C10.458 24.8908 10.7597 24.8554 11.0325 24.8198C11.3043 24.7841 11.4997 24.7429 11.6186 24.6957V9.09717H14.9232V27.0406H14.9233Z" fill="#E95420"/>
<path d="M22.9888 9.91448C23.3911 9.65421 24.0014 9.38159 24.8186 9.09744C25.6358 8.81296 26.5775 8.67105 27.6435 8.67105C28.9696 8.67105 30.1486 8.90795 31.1789 9.38142C32.2091 9.85555 33.0798 10.5185 33.7904 11.3716C34.5012 12.2241 35.0397 13.2429 35.407 14.4273C35.7738 15.6119 35.9579 16.9143 35.9579 18.3354C35.9579 19.8279 35.7384 21.1726 35.3005 22.3685C34.8618 23.5648 34.24 24.5771 33.4348 25.4062C32.6294 26.2356 31.6584 26.8755 30.5212 27.3248C29.3843 27.7745 28.1051 27.9999 26.6837 27.9999C25.1438 27.9999 23.782 27.8936 22.5976 27.6805C21.4128 27.4673 20.4418 27.2541 19.684 27.0409V0.569357L22.9885 0.0012207V9.91448H22.9888ZM22.9888 24.6956C23.3204 24.7906 23.7879 24.8794 24.3922 24.962C24.9961 25.0452 25.748 25.0863 26.6486 25.0863C28.4251 25.0863 29.8464 24.4999 30.9125 23.3276C31.9783 22.1551 32.5114 20.491 32.5114 18.3352C32.5114 17.3886 32.4164 16.5003 32.2271 15.6704C32.0371 14.8415 31.7297 14.125 31.3033 13.5208C30.8768 12.9166 30.3259 12.4432 29.6511 12.0993C28.9758 11.7563 28.1642 11.5843 27.2171 11.5843C26.3166 11.5843 25.4877 11.7387 24.7299 12.0463C23.9715 12.3544 23.3911 12.6741 22.9888 13.0054V24.6956Z" fill="#E95420"/>
<path d="M54.3988 27.0406C53.6405 27.2305 52.6397 27.4316 51.3961 27.6447C50.1525 27.858 48.7137 27.9642 47.0791 27.9642C45.6575 27.9642 44.4611 27.7566 43.4902 27.3429C42.5187 26.9287 41.7369 26.3421 41.1452 25.5839C40.5527 24.8256 40.1265 23.9315 39.8659 22.9011C39.6053 21.8707 39.4751 20.7285 39.4751 19.4722V9.09717H42.7798V18.7615C42.7798 21.0123 43.1349 22.6232 43.8458 23.594C44.5563 24.5653 45.7522 25.0509 47.4345 25.0509C47.7894 25.0509 48.1567 25.0389 48.5357 25.0149C48.9142 24.9917 49.2698 24.9619 49.6017 24.9262C49.9332 24.8908 50.2353 24.8554 50.5078 24.8198C50.7797 24.7841 50.9753 24.7429 51.0942 24.6957V9.09717H54.3986V27.0406H54.3988Z" fill="#E95420"/>
<path d="M59.159 9.63019C59.9168 9.44087 60.923 9.2392 62.1793 9.02584C63.4346 8.81281 64.8799 8.7063 66.514 8.7063C67.9828 8.7063 69.2023 8.91405 70.1736 9.32793C71.1446 9.74296 71.9205 10.3228 72.501 11.069C73.081 11.8151 73.4901 12.7099 73.727 13.7518C73.9637 14.7946 74.0826 15.9432 74.0826 17.1986V27.5733H70.7778V17.9088C70.7778 16.7721 70.7006 15.8009 70.5467 14.9953C70.3926 14.1906 70.1386 13.5386 69.783 13.0414C69.4274 12.5438 68.9537 12.1827 68.3617 11.9575C67.7687 11.7323 67.0347 11.6199 66.1589 11.6199C65.8036 11.6199 65.4356 11.6321 65.0573 11.6554C64.6782 11.6793 64.3168 11.7091 63.9737 11.7443C63.6293 11.7799 63.3217 11.8217 63.0497 11.8688C62.7772 11.9165 62.5815 11.9521 62.4633 11.9752V27.5733H59.1592V9.63019H59.159Z" fill="#E95420"/>
<path d="M81.7213 9.09754H88.7209V11.8691H81.7213V20.3962C81.7213 21.3202 81.7917 22.0839 81.9345 22.6879C82.0766 23.2926 82.2894 23.7663 82.5737 24.1093C82.8584 24.4531 83.2133 24.6961 83.6397 24.8378C84.0661 24.9799 84.5634 25.0514 85.1322 25.0514C86.1506 25.0514 86.9563 24.9391 87.5483 24.7137C88.14 24.4888 88.5431 24.3286 88.7563 24.2341L89.4669 26.9347C89.135 27.1005 88.5486 27.3137 87.708 27.5736C86.8672 27.8341 85.9139 27.9646 84.8476 27.9646C83.5923 27.9646 82.5559 27.8049 81.7389 27.4851C80.9215 27.165 80.264 26.6856 79.7668 26.0464C79.2695 25.4063 78.9196 24.619 78.7186 23.6833C78.5173 22.7477 78.4164 21.6638 78.4164 20.432V3.94533L81.7211 3.3772V9.09754H81.7213Z" fill="#E95420"/>
<path d="M106.7 27.0406C105.941 27.2305 104.941 27.4316 103.697 27.6447C102.454 27.858 101.015 27.9642 99.3806 27.9642C97.9591 27.9642 96.7627 27.7566 95.7916 27.3429C94.8203 26.9287 94.0383 26.3421 93.446 25.5839C92.854 24.8256 92.4276 23.9315 92.1668 22.9011C91.906 21.8707 91.7761 20.7285 91.7761 19.4722V9.09717H95.0809V18.7615C95.0809 21.0123 95.4362 22.6232 96.1465 23.594C96.8574 24.5653 98.0533 25.0509 99.7356 25.0509C100.091 25.0509 100.458 25.0389 100.837 25.0149C101.216 24.9917 101.571 24.9619 101.903 24.9262C102.235 24.8908 102.536 24.8554 102.809 24.8198C103.081 24.7841 103.276 24.7429 103.395 24.6957V9.09717H106.7V27.0406Z" fill="#E95420"/>
<path d="M117.216 14.9235C121.337 14.9235 124.678 11.5828 124.678 7.46177C124.678 3.34075 121.337 0 117.216 0C113.095 0 109.754 3.34075 109.754 7.46177C109.754 11.5828 113.095 14.9235 117.216 14.9235Z" fill="#E95420"/>
<path d="M113.343 7.46182C113.343 7.99175 112.914 8.42127 112.384 8.42127C111.854 8.42127 111.424 7.99175 111.424 7.46182C111.424 6.93204 111.854 6.50253 112.384 6.50253C112.914 6.50253 113.343 6.93204 113.343 7.46182ZM118.802 12.1266C119.066 12.5852 119.653 12.7424 120.112 12.4777C120.571 12.2128 120.728 11.6261 120.463 11.1673C120.198 10.7084 119.612 10.5514 119.153 10.8163C118.694 11.0812 118.537 11.6679 118.802 12.1266ZM120.463 3.75653C120.728 3.29771 120.571 2.71098 120.112 2.44642C119.653 2.18154 119.066 2.33875 118.802 2.79741C118.537 3.25623 118.694 3.84296 119.153 4.10768C119.612 4.3729 120.198 4.21551 120.463 3.75653ZM117.216 4.72602C118.646 4.72602 119.819 5.82179 119.941 7.21948L121.33 7.19775C121.264 6.15895 120.813 5.22501 120.119 4.53621C119.751 4.67812 119.325 4.65886 118.957 4.44632C118.589 4.23379 118.359 3.87391 118.298 3.48407C117.953 3.3904 117.59 3.34019 117.216 3.34019C116.559 3.34019 115.939 3.49379 115.388 3.7669L116.063 4.98005C116.413 4.81739 116.804 4.72602 117.216 4.72602ZM114.48 7.46182C114.48 6.53628 114.94 5.71808 115.643 5.22304L114.93 4.03163C114.105 4.58296 113.49 5.42421 113.23 6.41017C113.537 6.65761 113.734 7.03658 113.734 7.46182C113.734 7.88721 113.537 8.26618 113.23 8.51362C113.49 9.49974 114.105 10.341 114.93 10.8925L115.643 9.70092C114.94 9.20588 114.48 8.38768 114.48 7.46182ZM117.216 10.1981C116.804 10.1981 116.413 10.1067 116.063 9.94375L115.388 11.1569C115.939 11.4302 116.559 11.5836 117.216 11.5836C117.59 11.5836 117.953 11.5336 118.298 11.4399C118.359 11.0499 118.589 10.69 118.957 10.4776C119.325 10.2651 119.751 10.2458 120.119 10.3877C120.813 9.69861 121.263 8.76468 121.329 7.72604L119.941 7.70431C119.819 9.102 118.646 10.1981 117.216 10.1981Z" fill="white"/>
</svg>
